
Genre:Action | Crime | Drama
Language:English
IMDb:http://www.imdb.com/title/tt1657507/
Source:ZERO Thanks!

Format : MPEG-4
Format profile : Base Media
Codec ID : isom
File size : 1.31 GiB
Duration : 1h 47mn
Overall bit rate : 1 740 Kbps

Video
ID : 1
Format : AVC
Format/Info : Advanced Video Codec
Format profile : High@L4.1
Format settings, CABAC : Yes
Format settings, ReFrames : 3 frames
Codec ID : avc1
Codec ID/Info : Advanced Video Coding
Duration : 1h 47mn
Bit rate mode : Variable
Bit rate : 1 500 Kbps
Maximum bit rate : 6 904 Kbps
Width : 720 pixels
Height : 304 pixels
Display aspect ratio : 2.35:1
Frame rate mode : Constant
Frame rate : 29.970 fps
Color space : YUV
Chroma subsampling : 4:2:0
Bit depth : 8 bits
Scan type : Progressive
Bits/(Pixel*Frame) : 0.229
Stream size : 1.14 GiB (87%)
Writing library : x264

Audio
ID : 2
Format : AAC
Format/Info : Advanced Audio Codec
Format version : Version 4
Format profile : LC
Format settings, SBR : No
Codec ID : 40
Duration : 1h 47mn
Bit rate mode : Variable
Bit rate : 224 Kbps
Maximum bit rate : 289 Kbps
Channel(s) : 2 channels
Channel positions : Front: L R
Sampling rate : 48.0 KHz
Stream size : 173 MiB (13%)


Plot:
A young woman, after witnessing her parents' murder as a child in Bogota, grows up to be a stone-cold assassin
 
http://shareimage.org/images/24coj0fdfbpmkvcz58o9.png
 
http://shareimage.org/images/mlk4j0f32uths32vgvch.png
 
http://shareimage.org/images/0g5v7zg2n00to2zu9ij.png
 
http://shareimage.org/images/nlb7eburxj2r5bf06lb.png
 
http://shareimage.org/images/neflqg0q2sltd0wkgit3.png